<?xml version="1.0" encoding="utf-8"?>
<!-- Generator: Adobe Illustrator 25.2.1, SVG Export Plug-In . SVG Version: 6.00 Build 0)  -->
<svg version="1.1" id="Layer_1" xmlns="http://www.w3.org/2000/svg" xmlns:xlink="http://www.w3.org/1999/xlink" x="0px" y="0px"
	 viewBox="0 0 1728 342" style="enable-background:new 0 0 1728 342;" xml:space="preserve">
<style type="text/css">
	.st0{fill:#FFFFFF;}
</style>
<g>
	<g>
		<g>
			<g>
				<g>
					<g>
						<path class="st0" d="M1545.8,209.1c0,0-8.4,10.8-26.9,10.8c-25.2,0-40.6-20.3-40.6-45.3c0-24.9,15.4-45.1,40.6-45.1
							c18.6,0,26.9,10.7,26.9,10.7l-9.9,13.4c0,0-5.8-7.3-16.7-7.3c-13.4,0-22.8,12-22.8,28.4c0,16.4,9.4,28.5,22.8,28.5
							c10.9,0,16.7-7.5,16.7-7.5L1545.8,209.1z"/>
						<path class="st0" d="M1586.3,190.1c-15.6,0-28.2-11.8-28.2-30.3c0-18.6,12.6-30.8,28.2-30.8c15.4,0,28.2,12.2,28.2,30.8
							C1614.5,178.3,1601.7,190.1,1586.3,190.1z M1598.1,159.5c0-10.4-4.9-17.4-11.8-17.4c-7.1,0-11.9,6.9-11.9,17.4
							c0,10.7,4.9,17.4,11.9,17.4C1593.2,176.9,1598.1,170.2,1598.1,159.5z"/>
					</g>
				</g>
				<g>
					
						<rect x="1578.3" y="184.2" transform="matrix(-3.545750e-10 -1 1 -3.545750e-10 1376.5132 1796.1998)" class="st0" width="16.1" height="51.2"/>
				</g>
			</g>
			<g>
				<path class="st0" d="M1546.3,302.8c-70.7,0-128.3-57.6-128.3-128.3c0-70.7,57.6-128.3,128.3-128.3
					c70.8,0,128.3,57.6,128.3,128.3C1674.7,245.3,1617.1,302.8,1546.3,302.8z M1546.3,64.5c-60.7,0-110.1,49.4-110.1,110.1
					c0,60.7,49.4,110.1,110.1,110.1c60.7,0,110.1-49.4,110.1-110.1C1656.4,113.8,1607,64.5,1546.3,64.5z"/>
			</g>
		</g>
		<g>
			<path class="st0" d="M128.8,262.9c10.9,0,21.1-7,21.1-25.3v-2.5c0-5.3,1.8-7,7-7h20.7c5.3,0,7.4,4.2,7,9.1
				c-3.2,41.8-28.4,57.9-55.8,57.9c-29.1,0-56.2-18.3-56.2-66.7V113.3c0-48.4,27-66.7,56.2-66.7c27.4,0,52.6,16.1,55.8,57.9
				c0.4,4.9-1.8,9.1-7,9.1h-20.7c-5.3,0-7-1.8-7-7v-2.5c0-18.3-10.2-25.3-21.1-25.3s-21.1,7-21.1,25.3v133.4
				C107.8,255.9,118,262.9,128.8,262.9z"/>
			<path class="st0" d="M320.1,113.3v11.2c0,31.9-9.1,48.1-21.4,57.2l21.1,104.6c1.4,5.6-1.4,7.4-4.2,7.4h-22.1
				c-4.6,0-6.7,0-7.7-5.3l-17.9-94.4c-0.7-3.2-2.8-3.2-4.2-3.2h-6.7c-7,0-7,0-7,7v88.8c0,5.3-1.8,7-7,7h-21.1c-5.3,0-7-1.8-7-7V55.1
				c0-5.3,1.8-7,7-7h45.6C296.6,48.1,320.1,64.9,320.1,113.3z M256.9,78.9c-7,0-7,0-7,7v67c0,7,0,7,7,7h10.5
				c10.9,0,17.5-7,17.5-24.9v-30.9c0-18.3-6.7-25.3-17.5-25.3H256.9z"/>
			<path class="st0" d="M434.5,48.1h21.1c5.3,0,7,1.8,7,7v173.4c0,48.4-27,66.7-56.2,66.7s-56.2-18.3-56.2-66.7V55.1
				c0-5.3,1.8-7,7-7h21.1c5.3,0,7,1.8,7,7v182.5c0,18.3,10.2,25.3,21.1,25.3s21.1-7,21.1-25.3V55.1
				C427.5,49.8,429.3,48.1,434.5,48.1z"/>
			<path class="st0" d="M485.8,237.6c0-6,1.4-7.7,7.4-7.7h20.4c4.6,0,7,1.8,7,8.1c0,13.7,7,24.9,21.4,24.9c14,0,20.4-10.9,21.8-20.7
				c6.7-41.8-70.6-82.1-74.1-140c-1.8-30.2,20-55.5,51.6-55.5c24.2,0,47.4,18.6,50.2,46.7c0.7,9.5,0,11.2-7,11.2h-19.3
				c-5.3,0-7-1.8-7-7c0-12.6-7.4-18.6-16.8-18.6c-16.1,0-17.9,15.8-17.2,22.8c3.9,39.3,67,74.8,73.7,129.9
				c3.9,31.6-19.7,63.5-55.8,63.5C509.7,295.2,485.1,268.5,485.8,237.6z"/>
			<path class="st0" d="M619.5,48.1h91.3c5.3,0,7,1.8,7,7v19c0,5.3-1.8,7-7,7h-21.1c-7,0-7,0-7,7v198.7c0,5.3-1.8,7-7,7h-21.1
				c-5.3,0-7-1.8-7-7V88.1c0-7,0-7-6.7-7h-21.4c-5.3,0-7-1.8-7-7v-19C612.5,49.8,614.2,48.1,619.5,48.1z"/>
			<path class="st0" d="M859.9,48.1c29.1,0,56.2,18.3,56.2,66.7v30.5c0,48.4-27,66.7-56.2,66.7h-10.5c-3.5,0.4-3.5,1.8-3.5,7v67.7
				c0,5.3-2.1,7-7,7h-21.1c-5.6,0-7-1.8-7-7V55.1c0-5.3,1.8-7,7-7H859.9z M852.9,179h7c10.9,0,21.1-7,21.1-25.3v-47.4
				c0-18.3-10.2-25.3-21.1-25.3h-7c-7,0-7,0-7,7v83.5C845.9,179,845.9,179,852.9,179z"/>
			<path class="st0" d="M972.2,293.8h-21.1c-5.3,0-7-1.8-7-7V55.1c0-5.3,1.8-7,7-7h21.1c5.3,0,7,1.8,7,7v231.7
				C979.3,292,977.5,293.8,972.2,293.8z"/>
			<path class="st0" d="M1045.6,258c-0.7,2.1,0,2.8,1.8,2.8h51.2c5.3,0,7,1.8,7,7v19c0,5.3-1.8,7-7,7h-84.2c-5.3,0-7-1.8-7-7v-21.4
				c0-3.5,0-4.2,1.4-7.7l58.6-173.7c0.7-1.8,0-2.8-1.8-2.8h-51.2c-5.3,0-7-1.8-7-7v-19c0-5.3,1.8-7,7-7h84.2c5.3,0,7,1.8,7,7v21.4
				c0,3.5,0,3.5-1.4,7.7L1045.6,258z"/>
			<path class="st0" d="M1164.9,258c-0.7,2.1,0,2.8,1.8,2.8h51.2c5.3,0,7,1.8,7,7v19c0,5.3-1.8,7-7,7h-84.2c-5.3,0-7-1.8-7-7v-21.4
				c0-3.5,0-4.2,1.4-7.7l58.6-173.7c0.7-1.8,0-2.8-1.8-2.8h-51.2c-5.3,0-7-1.8-7-7v-19c0-5.3,1.8-7,7-7h84.2c5.3,0,7,1.8,7,7v21.4
				c0,3.5,0,3.5-1.4,7.7L1164.9,258z"/>
			<path class="st0" d="M1342.2,293.8c-4.6,0-6.7,0-7.7-5.3l-3.2-19c-1.4-7-1.4-7-7.7-7h-31.2c-6.7,0-6.7,0-8.1,7l-3.2,19
				c-1.1,5.3-3.2,5.3-7.7,5.3h-21.1c-3.5,0-7,0-6-6l44.2-233.4c1.1-5.3,2.1-6.3,7.7-6.3h19c5.6,0,6.7,1.1,7.7,6.3l44.2,233.4
				c1.1,6-2.5,6-6,6H1342.2z M1292,222.5c-1.1,7-1.1,7,6,7h19.7c7,0,7,0,6-7l-14.4-85.3c-0.4-1.8-2.5-1.8-2.8,0L1292,222.5z"/>
		</g>
	</g>
</g>
</svg>
