<svg xmlns="http://www.w3.org/2000/svg" width="146.519" height="90.722" viewBox="0 0 146.519 90.722">
  <g id="Group_41" data-name="Group 41" transform="translate(-9.021 -10.308)">
    <g id="Group_37" data-name="Group 37" transform="translate(123.752 71.653)">
      <g id="Group_35" data-name="Group 35" transform="translate(6.891 9.473)">
        <g id="Group_33" data-name="Group 33">
          <g id="Group_32" data-name="Group 32">
            <path id="Path_67" data-name="Path 67" d="M152.843,98.731a3.944,3.944,0,0,1-3.085,1.238c-2.887,0-4.652-2.326-4.652-5.181s1.765-5.164,4.652-5.164a3.965,3.965,0,0,1,3.085,1.222l-1.138,1.534a2.533,2.533,0,0,0-1.914-.841c-1.535,0-2.607,1.369-2.607,3.25s1.072,3.267,2.607,3.267a2.518,2.518,0,0,0,1.914-.857Z" transform="translate(-145.106 -89.555)"/>
            <path id="Path_68" data-name="Path 68" d="M158.559,96.544a3.235,3.235,0,0,1-3.228-3.467,3.241,3.241,0,1,1,6.455,0A3.243,3.243,0,0,1,158.559,96.544Zm1.351-3.5c0-1.193-.557-1.988-1.351-1.988-.811,0-1.367.795-1.367,1.988,0,1.224.557,1.988,1.367,1.988C159.354,95.034,159.91,94.27,159.91,93.046Z" transform="translate(-146.193 -89.547)"/>
          </g>
        </g>
        <g id="Group_34" data-name="Group 34" transform="translate(9.444 8.339)">
          <rect id="Rectangle_1" data-name="Rectangle 1" width="1.843" height="5.865" transform="translate(0 1.843) rotate(-90)"/>
        </g>
      </g>
      <g id="Group_36" data-name="Group 36">
        <path id="Path_69" data-name="Path 69" d="M152.083,108.325a14.688,14.688,0,1,1,14.689-14.688A14.705,14.705,0,0,1,152.083,108.325Zm0-27.287a12.6,12.6,0,1,0,12.6,12.6A12.613,12.613,0,0,0,152.083,81.038Z" transform="translate(-137.395 -78.948)"/>
      </g>
    </g>
    <g id="Group_40" data-name="Group 40" transform="translate(9.021 10.308)">
      <g id="Group_38" data-name="Group 38">
        <path id="Path_70" data-name="Path 70" d="M21.5,58.37c2.418,0,4.68-1.56,4.68-5.618v-.546c0-1.171.391-1.56,1.56-1.56h4.6c1.17,0,1.638.937,1.56,2.029-.7,9.285-6.319,12.872-12.4,12.872-6.476,0-12.483-4.056-12.483-14.823V25.132c0-10.767,6.008-14.824,12.483-14.824,6.086,0,11.7,3.589,12.4,12.874.079,1.093-.39,2.029-1.56,2.029h-4.6c-1.17,0-1.56-.391-1.56-1.56V23.1c0-4.057-2.263-5.616-4.68-5.616s-4.681,1.559-4.681,5.616V52.752C16.823,56.809,19.085,58.37,21.5,58.37Z" transform="translate(-9.021 -10.308)"/>
        <path id="Path_71" data-name="Path 71" d="M68.654,25.169v2.5c0,7.1-2.029,10.689-4.759,12.718l4.681,23.251c.312,1.248-.311,1.638-.936,1.638H62.725c-1.014,0-1.482,0-1.716-1.171l-3.98-20.988a.8.8,0,0,0-.937-.7H54.61c-1.56,0-1.56,0-1.56,1.56V63.711c0,1.171-.39,1.561-1.56,1.561H46.808c-1.17,0-1.56-.391-1.56-1.561V12.217c0-1.17.391-1.56,1.56-1.56H56.951C63.426,10.657,68.654,14.4,68.654,25.169ZM54.61,17.524c-1.56,0-1.56,0-1.56,1.559v14.9c0,1.56,0,1.56,1.56,1.56h2.342c2.418,0,3.9-1.56,3.9-5.539V23.14c0-4.057-1.484-5.616-3.9-5.616Z" transform="translate(-12.871 -10.345)"/>
        <path id="Path_72" data-name="Path 72" d="M98.543,10.657h4.682c1.17,0,1.559.391,1.559,1.56V50.76c0,10.768-6.007,14.823-12.483,14.823S79.818,61.528,79.818,50.76V12.217c0-1.17.391-1.56,1.56-1.56H86.06c1.171,0,1.561.391,1.561,1.56V52.789c0,4.057,2.262,5.618,4.68,5.618s4.682-1.56,4.682-5.618V12.217C96.983,11.048,97.373,10.657,98.543,10.657Z" transform="translate(-16.545 -10.345)"/>
        <path id="Path_73" data-name="Path 73" d="M114.386,52.752c0-1.326.313-1.717,1.638-1.717h4.526c1.014,0,1.56.391,1.56,1.795,0,3.043,1.56,5.54,4.759,5.54,3.121,0,4.525-2.419,4.839-4.6,1.481-9.283-15.684-18.256-16.463-31.13a11.355,11.355,0,0,1,22.626-1.949c.155,2.106,0,2.5-1.56,2.5h-4.292c-1.17,0-1.56-.391-1.56-1.56,0-2.81-1.638-4.134-3.745-4.134-3.589,0-3.98,3.51-3.822,5.07.857,8.738,14.9,16.619,16.384,28.868a12.5,12.5,0,1,1-24.889,1.326Z" transform="translate(-20.219 -10.308)"/>
        <path id="Path_74" data-name="Path 74" d="M148.335,10.657H168.62c1.172,0,1.56.391,1.56,1.56v4.214c0,1.17-.389,1.56-1.56,1.56h-4.68c-1.56,0-1.56,0-1.56,1.56V63.711c0,1.171-.391,1.561-1.56,1.561h-4.682c-1.17,0-1.56-.391-1.56-1.561V19.552c0-1.56,0-1.56-1.483-1.56h-4.759c-1.17,0-1.56-.391-1.56-1.56V12.217C146.775,11.048,147.166,10.657,148.335,10.657Z" transform="translate(-23.661 -10.345)"/>
      </g>
      <g id="Group_39" data-name="Group 39" transform="translate(4.262 66.975)">
        <path id="Path_75" data-name="Path 75" d="M27.283,91.273c0,3.839-2.548,6.117-6.355,6.117H17.419v5.848H13.79V85.248h7.167C24.735,85.248,27.283,87.647,27.283,91.273Zm-6.566-2.847h-3.3v5.815h3.328a2.91,2.91,0,0,0-.03-5.815Z" transform="translate(-13.79 -85.248)"/>
        <path id="Path_76" data-name="Path 76" d="M43.666,103.238H40.037V85.248h3.629Z" transform="translate(-16.58 -85.248)"/>
        <path id="Path_77" data-name="Path 77" d="M57.087,100.569l8.546-12.143H57.386V85.248H70.369v2.788l-8.3,12.022h8.3v3.179H57.087Z" transform="translate(-18.392 -85.248)"/>
        <path id="Path_78" data-name="Path 78" d="M84.036,100.569l8.546-12.143H84.335V85.248H97.318v2.788l-8.3,12.022h8.3v3.179H84.036Z" transform="translate(-21.256 -85.248)"/>
        <path id="Path_79" data-name="Path 79" d="M126.7,103.238h-3.9l-1.139-3.478h-6.777l-1.109,3.478h-3.9l6.478-17.99h3.868Zm-10.854-6.416H120.7l-2.427-7.467Z" transform="translate(-24.002 -85.248)"/>
      </g>
    </g>
  </g>
</svg>
